HIERARCHY
ROOT hip
{
  OFFSET 0 0 0
  CHANNELS 6 Xposition Yposition Zposition Zrotation Yrotation Xrotation
  JOINT abdomen
  {
    OFFSET 0 20.6881 -0.73152
    CHANNELS 3 Zrotation Xrotation Yrotation
    JOINT chest
    {
      OFFSET 0 11.7043 -0.48768
      CHANNELS 3 Zrotation Xrotation Yrotation
      JOINT neck
      {
        OFFSET 0 22.1894 -2.19456
        CHANNELS 3 Zrotation Xrotation Yrotation
        JOINT head
        {
          OFFSET -0.24384 7.07133 1.2192
          CHANNELS 3 Zrotation Xrotation Yrotation
          JOINT leftEye
          {
            OFFSET 4.14528 8.04674 8.04672
            CHANNELS 3 Zrotation Xrotation Yrotation
            End Site
            {
              OFFSET 1 0 0
            }
          }
          JOINT rightEye
          {
            OFFSET -3.6576 8.04674 8.04672
            CHANNELS 3 Zrotation Xrotation Yrotation
            End Site
            {
              OFFSET 1 0 0
            }
          }
        }
      }
      JOINT rCollar
      {
        OFFSET -2.68224 19.2634 -4.8768
        CHANNELS 3 Zrotation Xrotation Yrotation
        JOINT rShldr
        {
          OFFSET -8.77824 -1.95073 1.46304
          CHANNELS 3 Zrotation Xrotation Yrotation
          JOINT rForeArm
          {
            OFFSET -28.1742 -1.7115 0.48768
            CHANNELS 3 Zrotation Xrotation Yrotation
            JOINT rHand
            {
              OFFSET -22.5879 0.773209 7.07136
              CHANNELS 3 Zrotation Xrotation Yrotation
              JOINT rThumb1
              {
                OFFSET -1.2192 -0.487915 3.41376
                CHANNELS 3 Zrotation Xrotation Yrotation
                JOINT rThumb2
                {
                  OFFSET -3.37035 -0.52449 3.41376
                  CHANNELS 3 Zrotation Xrotation Yrotation
                  End Site
                  {
                    OFFSET -1.78271 -1.18214 1.43049
                  }
                }
              }
              JOINT rIndex1
              {
                OFFSET -7.75947 0.938293 5.60832
                CHANNELS 3 Zrotation Xrotation Yrotation
                JOINT rIndex2
                {
                  OFFSET -2.54057 -0.884171 1.56538
                  CHANNELS 3 Zrotation Xrotation Yrotation
                  End Site
                  {
                    OFFSET -1.62519 -0.234802 1.16502
                  }
                }
              }
              JOINT rMid1
              {
                OFFSET -8.24714 1.18213 3.41376
                CHANNELS 3 Zrotation Xrotation Yrotation
                JOINT rMid2
                {
                  OFFSET -3.10165 -0.590103 1.0647
                  CHANNELS 3 Zrotation Xrotation Yrotation
                  End Site
                  {
                    OFFSET -2.48547 -0.328903 0.83742
                  }
                }
              }
              JOINT rRing1
              {
                OFFSET -8.82822 0.546677 1.51678
                CHANNELS 3 Zrotation Xrotation Yrotation
                JOINT rRing2
                {
                  OFFSET -2.60934 -0.819778 -0.0198488
                  CHANNELS 3 Zrotation Xrotation Yrotation
                  End Site
                  {
                    OFFSET -2.33842 -0.294052 0.168128
                  }
                }
              }
              JOINT rPinky1
              {
                OFFSET -8.27202 -0.0477905 -0.4584
                CHANNELS 3 Zrotation Xrotation Yrotation
                JOINT rPinky2
                {
                  OFFSET -1.82734 -0.647385 -0.700984
                  CHANNELS 3 Zrotation Xrotation Yrotation
                  End Site
                  {
                    OFFSET -1.69225 -0.51767 -0.607171
                  }
                }
              }
            }
          }
        }
      }
      JOINT lCollar
      {
        OFFSET 2.68224 19.2634 -4.8768
        CHANNELS 3 Zrotation Xrotation Yrotation
        JOINT lShldr
        {
          OFFSET 8.77824 -1.95073 1.46304
          CHANNELS 3 Zrotation Xrotation Yrotation
          JOINT lForeArm
          {
            OFFSET 28.1742 -1.7115 0.48768
            CHANNELS 3 Zrotation Xrotation Yrotation
            JOINT lHand
            {
              OFFSET 22.5879 0.773209 7.07136
              CHANNELS 3 Zrotation Xrotation Yrotation
              JOINT lThumb1
              {
                OFFSET 1.2192 -0.487915 3.41376
                CHANNELS 3 Zrotation Xrotation Yrotation
                JOINT lThumb2
                {
                  OFFSET 3.37035 -0.52449 3.41376
                  CHANNELS 3 Zrotation Xrotation Yrotation
                  End Site
                  {
                    OFFSET 1.78271 -1.18214 1.43049
                  }
                }
              }
              JOINT lIndex1
              {
                OFFSET 7.75947 0.938293 5.60832
                CHANNELS 3 Zrotation Xrotation Yrotation
                JOINT lIndex2
                {
                  OFFSET 2.54057 -0.884171 1.56538
                  CHANNELS 3 Zrotation Xrotation Yrotation
                  End Site
                  {
                    OFFSET 1.62519 -0.234802 1.16502
                  }
                }
              }
              JOINT lMid1
              {
                OFFSET 8.24714 1.18213 3.41376
                CHANNELS 3 Zrotation Xrotation Yrotation
                JOINT lMid2
                {
                  OFFSET 3.10165 -0.590103 1.0647
                  CHANNELS 3 Zrotation Xrotation Yrotation
                  End Site
                  {
                    OFFSET 2.48547 -0.328903 0.83742
                  }
                }
              }
              JOINT lRing1
              {
                OFFSET 8.82822 0.546677 1.51678
                CHANNELS 3 Zrotation Xrotation Yrotation
                JOINT lRing2
                {
                  OFFSET 2.60934 -0.819778 -0.0198488
                  CHANNELS 3 Zrotation Xrotation Yrotation
                  End Site
                  {
                    OFFSET 2.33842 -0.294052 0.168128
                  }
                }
              }
              JOINT lPinky1
              {
                OFFSET 8.27202 -0.0477905 -0.4584
                CHANNELS 3 Zrotation Xrotation Yrotation
                JOINT lPinky2
                {
                  OFFSET 1.82734 -0.647385 -0.700984
                  CHANNELS 3 Zrotation Xrotation Yrotation
                  End Site
                  {
                    OFFSET 1.69225 -0.51767 -0.607171
                  }
                }
              }
            }
          }
        }
      }
    }
  }
  JOINT rButtock
  {
    OFFSET -8.77824 4.35084 1.2192
    CHANNELS 3 Zrotation Xrotation Yrotation
    JOINT rThigh
    {
      OFFSET 0 -1.70687 -2.19456
      CHANNELS 3 Zrotation Xrotation Yrotation
      JOINT rShin
      {
        OFFSET 0 -36.8199 0.73152
        CHANNELS 3 Zrotation Xrotation Yrotation
        JOINT rFoot
        {
          OFFSET 0.73152 -45.1104 -5.12064
          CHANNELS 3 Zrotation Xrotation Yrotation
          End Site
          {
            OFFSET -1.1221 -3.69964 12.103
          }
        }
      }
    }
  }
  JOINT lButtock
  {
    OFFSET 8.77824 4.35084 1.2192
    CHANNELS 3 Zrotation Xrotation Yrotation
    JOINT lThigh
    {
      OFFSET 0 -1.70687 -2.19456
      CHANNELS 3 Zrotation Xrotation Yrotation
      JOINT lShin
      {
        OFFSET 0 -36.8199 0.73152
        CHANNELS 3 Zrotation Xrotation Yrotation
        JOINT lFoot
        {
          OFFSET -0.73152 -45.1104 -5.12064
          CHANNELS 3 Zrotation Xrotation Yrotation
          End Site
          {
            OFFSET 1.1221 -3.69964 12.103
          }
        }
      }
    }
  }
}
MOTION
Frames:	4
Frame Time:	0.03333
-148.22586439549923 -0.08460243698209524 92.14277975261211 -0.6435655355453491 -1.2882825136184692 1.0123653411865234 -0.33312320709228516 0.7490277290344238 -0.12595099210739136 1.1199215650558472 -1.7815345525741577 -0.2223719209432602 0.7155965566635132 0.3136149048805237 1.24221670627594 -2.0890889167785645 -2.5295326709747314 1.5162386894226074 0.7605681419372559 -0.4433287978172302 -1.0373730659484863 -1.2261677980422974 0.009883570484817028 -0.859279215335846 -0.9737302660942078 0.9819360375404358 -2.2138254642486572 -0.8822461366653442 -1.0913355350494385 0.23615513741970062 0.09081406146287918 -1.2722476720809937 -2.6568610668182373 -0.25181952118873596 -1.3452893495559692 0.7281901836395264 -1.2451564073562622 0.7563833594322205 0.49139147996902466 1.086323857307434 -1.002243161201477 -0.4888923168182373 0.9404793381690979 -0.6256654262542725 -0.25910744071006775 -2.132150411605835 -2.1320159435272217 -0.5273514986038208 1.1739777326583862 0.6364873051643372 -0.65610671043396 1.652321219444275 1.6474689245224 -1.0807334184646606 0.21029365062713623 1.2415863275527954 0.5179188251495361 -0.2885318994522095 0.08870772272348404 1.522634506225586 0.6145520806312561 -0.47011345624923706 -0.38199833035469055 0.12870265543460846 0.06040458753705025 0.2352931797504425 -0.7151851654052734 -0.41575050354003906 -1.5948368310928345 0.13438645005226135 -0.08332142978906631 0.34099748730659485 -1.4132094383239746 -0.1350642293691635 1.6466028690338135 -1.2874269485473633 -0.48376691341400146 -1.4468234777450562 -0.43112707138061523 0.5191720724105835 0.016866551712155342 0.1043504849076271 0.8786007165908813 -0.010191685520112514 -1.260925054550171 -0.09894244372844696 -0.22564983367919922 -0.4901064932346344 -1.3807810544967651 0.7318543791770935 0.6111172437667847 0.692446231842041 1.0812493562698364 0.5536407828330994 1.854217767715454 -0.12556949257850647 0.7520031929016113 1.2384525537490845 -0.5524258017539978 -2.598341941833496 -0.29496416449546814 0.5412321090698242 -0.9186922907829285 2.3836846351623535 -1.3394454717636108 1.0435806512832642 -1.6355797052383423 0.5297605395317078 -1.1661992073059082 -0.010346376337110996 -0.4678117334842682 0.7878919839859009 -2.072350025177002 2.375415086746216 0.5249590873718262 0.18115448951721191 1.0373724699020386 0.894934356212616 -0.6989001035690308 0.7021093368530273 -1.0923243761062622 1.7129318714141846 -0.24828462302684784 -1.092947244644165 -1.486698031425476 -1.4684654474258423 1.5256301164627075 -1.484596848487854 0.09442871063947678 -1.747313141822815 -0.6846746802330017 1.2648032903671265
-151.11322812736034 -0.015030475333333015 94.04397998005152 -0.6331419348716736 -1.2813503742218018 1.0388243198394775 -0.3438781797885895 0.7573319673538208 -0.13256511092185974 1.1192885637283325 -1.753313422203064 -0.2519693076610565 0.7347515225410461 0.3018786609172821 1.263322353363037 -2.084498167037964 -2.5247302055358887 1.5170879364013672 0.7447091341018677 -0.4287542998790741 -1.0537621974945068 -1.216800332069397 0.021311648190021515 -0.866864800453186 -0.9595322608947754 0.9766847491264343 -2.2061145305633545 -0.8882578611373901 -1.1066997051239014 0.2563668191432953 0.0806828960776329 -1.2631604671478271 -2.6684346199035645 -0.25854140520095825 -1.3387467861175537 0.7239630222320557 -1.253260850906372 0.7482757568359375 0.4990319609642029 1.091162085533142 -0.9992626905441284 -0.474185049533844 0.9551785588264465 -0.6256039142608643 -0.25373420119285583 -2.1559674739837646 -2.13712477684021 -0.5088340640068054 1.1655782461166382 0.6122743487358093 -0.6665964126586914 1.6537704467773438 1.6645649671554565 -1.0616639852523804 0.206330806016922 1.2338464260101318 0.5198542475700378 -0.28070715069770813 0.08610676229000092 1.54874849319458 0.6271309852600098 -0.4533204436302185 -0.38746199011802673 0.15048424899578094 0.05972883477807045 0.2245970219373703 -0.7325782179832458 -0.4067682921886444 -1.578957438468933 0.13703450560569763 -0.09269211441278458 0.36026400327682495 -1.4068845510482788 -0.12804189324378967 1.6209735870361328 -1.2879990339279175 -0.4803306758403778 -1.469168782234192 -0.43579623103141785 0.5338550209999084 0.036013513803482056 0.08513584733009338 0.9021952748298645 0.007963825017213821 -1.253585934638977 -0.10053609311580658 -0.24790127575397491 -0.5122827291488647 -1.3838090896606445 0.710709273815155 0.6201467514038086 0.6762732863426208 1.0976907014846802 0.5534639954566956 1.842463731765747 -0.1574154794216156 0.7551125884056091 1.2002394199371338 -0.5809116363525391 -2.585090398788452 -0.2916054129600525 0.5224863886833191 -0.9197393655776978 2.3784382343292236 -1.303895115852356 1.0569835901260376 -1.6114915609359741 0.5550184845924377 -1.155849575996399 -0.035019438713788986 -0.48006823658943176 0.7675555348396301 -2.0798144340515137 2.3726720809936523 0.5321967601776123 0.1704256236553192 1.0331209897994995 0.9144314527511597 -0.689246654510498 0.7381172776222229 -1.0924866199493408 1.7071926593780518 -0.2681991457939148 -1.0942388772964478 -1.5082813501358032 -1.4453015327453613 1.5147255659103394 -1.4556583166122437 0.08759990334510803 -1.7520396709442139 -0.6743221879005432 1.2896147966384888
-154.00788858532906 -0.006045494228601456 95.91224808245897 -0.6411836743354797 -1.2857824563980103 1.032012939453125 -0.33700427412986755 0.7530388236045837 -0.13352853059768677 1.1207462549209595 -1.7699918746948242 -0.2562985122203827 0.7432786822319031 0.3003593683242798 1.2503615617752075 -2.0783143043518066 -2.5165531635284424 1.5322788953781128 0.7481738924980164 -0.4296545088291168 -1.0330514907836914 -1.219653844833374 0.018199734389781952 -0.8608801364898682 -0.968540608882904 0.9849405288696289 -2.2025551795959473 -0.8909749388694763 -1.1070612668991089 0.2571167051792145 0.09212682396173477 -1.260726809501648 -2.6805336475372314 -0.2659260630607605 -1.3352148532867432 0.7280991673469543 -1.2463542222976685 0.7269760966300964 0.48243939876556396 1.1030809879302979 -1.0057865381240845 -0.4825237989425659 0.925984799861908 -0.6453705430030823 -0.28619781136512756 -2.153890609741211 -2.134222984313965 -0.5085015892982483 1.153420329093933 0.6272887587547302 -0.6716201901435852 1.6632051467895508 1.6422128677368164 -1.0620503425598145 0.21168313920497894 1.2368725538253784 0.512345552444458 -0.27479323744773865 0.09543155878782272 1.5243099927902222 0.6323632001876831 -0.44980373978614807 -0.3963102698326111 0.1526811718940735 0.060389526188373566 0.22605110704898834 -0.7129818201065063 -0.4032813608646393 -1.5777922868728638 0.14506860077381134 -0.09593328088521957 0.34768757224082947 -1.395264983177185 -0.11915942281484604 1.6411880254745483 -1.2811003923416138 -0.48709234595298767 -1.4733171463012695 -0.4290142357349396 0.5149102210998535 0.02750338613986969 0.10061666369438171 0.9117441773414612 -0.0029254446271806955 -1.2539268732070923 -0.09511447697877884 -0.24933527410030365 -0.5098269581794739 -1.3672124147415161 0.7170151472091675 0.6264185309410095 0.6653422117233276 1.1159981489181519 0.5563893914222717 1.847233772277832 -0.15420325100421906 0.7570528984069824 1.214870572090149 -0.5615816712379456 -2.588064193725586 -0.28914874792099 0.5243449211120605 -0.9184955954551697 2.3710777759552 -1.313952922821045 1.065248966217041 -1.6240962743759155 0.5721123814582825 -1.1716034412384033 -0.019539393484592438 -0.4829965829849243 0.767554759979248 -2.092419385910034 2.373523235321045 0.5366194844245911 0.1670081913471222 1.0361171960830688 0.9057552814483643 -0.7005689144134521 0.7228453159332275 -1.074823021888733 1.7015360593795776 -0.2707962095737457 -1.1089576482772827 -1.5105149745941162 -1.437276005744934 1.5145364999771118 -1.468083381652832 0.07439740747213364 -1.7537199258804321 -0.6772345304489136 1.2899971008300781
-156.89357183873653 -0.05137190455570817 97.73359876126051 -0.6565905213356018 -1.2954386472702026 1.0046629905700684 -0.3209530711174011 0.7430684566497803 -0.1295010894536972 1.1230535507202148 -1.8124209642410278 -0.24107180535793304 0.7376747131347656 0.30772560834884644 1.2194470167160034 -2.0732765197753906 -2.512526035308838 1.547319769859314 0.7646738886833191 -0.4425722062587738 -0.9957919120788574 -1.2301044464111328 0.005825050640851259 -0.84939044713974 -0.9901143908500671 0.9970132112503052 -2.2036519050598145 -0.8884479403495789 -1.0930081605911255 0.24428316950798035 0.11202510446310043 -1.2653923034667969 -2.684760332107544 -0.2680020034313202 -1.336269736289978 0.7372567653656006 -1.2340220212936401 0.7096542119979858 0.4584915339946747 1.1125622987747192 -1.01456618309021 -0.5027289390563965 0.8824688792228699 -0.6681205034255981 -0.32610341906547546 -2.1330270767211914 -2.1262729167938232 -0.5221385955810547 1.1459676027297974 0.6635259389877319 -0.6706076860427856 1.6744061708450317 1.6044328212738037 -1.0754557847976685 0.22021932899951935 1.2449737787246704 0.5026558041572571 -0.2704331576824188 0.10878567397594452 1.4777716398239136 0.628372311592102 -0.4592195153236389 -0.4021265506744385 0.1385137140750885 0.0610467866063118 0.23715223371982574 -0.6762789487838745 -0.4046270549297333 -1.5870091915130615 0.15216867625713348 -0.09291351586580276 0.3175566494464874 -1.3881779909133911 -0.11534800380468369 1.6828008890151978 -1.2724241018295288 -0.49712494015693665 -1.4602291584014893 -0.4189755320549011 0.48160073161125183 0.0034569106064736843 0.13220243155956268 0.9043350219726562 -0.02950666844844818 -1.2585335969924927 -0.08938941359519958 -0.2336258590221405 -0.4893718361854553 -1.34649658203125 0.740064263343811 0.6246559023857117 0.6646643280982971 1.1228523254394531 0.5608524084091187 1.8604627847671509 -0.12671104073524475 0.7564268112182617 1.2618306875228882 -0.5164813995361328 -2.601149559020996 -0.2910657823085785 0.540531575679779 -0.9176548719406128 2.3661601543426514 -1.3520057201385498 1.0647026300430298 -1.6566383838653564 0.5714213848114014 -1.197116494178772 0.01653626747429371 -0.47743186354637146 0.7832971811294556 -2.10111665725708 2.3757078647613525 0.5370938777923584 0.17188552021980286 1.0420085191726685 0.8825834393501282 -0.7211630940437317 0.6776387095451355 -1.0545413494110107 1.6982041597366333 -0.2599675953388214 -1.1228291988372803 -1.496767282485962 -1.4446405172348022 1.5217145681381226 -1.5041108131408691 0.06638998538255692 -1.7522739171981812 -0.6875975728034973 1.269555926322937
